# This file uses centimeters as units for non-parametric coordinates.

mtllib Character.mtl
g default
v 2.403369 5.953933 -0.476101
v 1.267658 5.965600 -0.443273
v 1.297796 5.965298 0.599476
v 2.433507 5.953630 0.566650
v 2.372614 2.959382 -0.476079
v 1.236900 2.971051 -0.443252
v 1.267037 2.970748 0.599498
v 2.402753 2.959081 0.566670
v 1.188305 2.988629 -0.466910
v 0.052204 3.005577 -0.460167
v 0.058121 2.987187 0.582840
v 1.194222 2.970239 0.576096
v 1.143331 -0.005280 -0.519445
v 0.007229 0.011668 -0.512701
v 0.013147 -0.006723 0.530306
v 1.149247 -0.023671 0.523562
v 0.049114 3.005623 -0.460149
v -1.086988 3.022571 -0.453405
v -1.081072 3.004181 0.589602
v 0.055030 2.987233 0.582858
v 0.004139 0.011714 -0.512683
v -1.131962 0.028662 -0.505939
v -1.126045 0.010271 0.537067
v 0.010056 -0.006677 0.530324
v -2.188976 3.032511 -0.516164
v -1.059137 3.012067 -0.397390
v -1.168415 2.999697 0.639983
v -2.298252 3.020146 0.521209
v -2.139098 6.026524 -0.475212
v -1.009265 6.006078 -0.356438
v -1.118541 5.993709 0.680934
v -2.248377 6.014155 0.562160
v 1.225915 5.976843 -0.414434
v -1.069228 6.011081 -0.400811
v -1.063310 5.992690 0.642196
v 1.231833 5.958452 0.628572
v 1.180941 2.982933 -0.466969
v -1.114202 3.017171 -0.453345
v -1.108284 2.998780 0.589661
v 1.186858 2.964542 0.576038
v -0.890357 5.969539 1.119296
v -0.873510 7.969159 1.154458
v -0.884853 8.004418 -0.845199
v -0.901700 6.004797 -0.880362
v 1.109540 5.952895 1.107658
v 1.126386 7.952515 1.142819
v 1.115043 7.987773 -0.856837
v 1.098196 5.988154 -0.891999
v -0.890357 5.969539 1.119296
v -0.873510 7.969159 1.154458
v -0.884853 8.004418 -0.845199
v -0.901700 6.004797 -0.880362
vt 0.689934 0.495565
vt 0.689339 0.380423
vt 0.748153 0.380419
vt 0.748748 0.495561
vt 0.813120 0.496101
vt 0.757901 0.498796
vt 0.759715 0.389343
vt 0.814246 0.387968
vt 0.691096 0.377156
vt 0.693834 0.001912
vt 0.747501 0.008395
vt 0.753152 0.375250
vt 0.688328 0.374991
vt 0.688328 0.005988
vt 0.748819 0.000058
vt 0.748819 0.369061
vt 0.688839 0.369572
vt 0.687600 0.004327
vt 0.751165 0.000589
vt 0.752404 0.365834
vt 0.690080 0.003953
vt 0.691833 0.375361
vt 0.751610 0.369261
vt 0.749856 -0.002147
vt 0.122711 0.377515
vt 0.122790 0.486939
vt 0.062175 0.489947
vt 0.062097 0.380523
vt 0.185797 0.496086
vt 0.129150 0.496087
vt 0.130335 0.384604
vt 0.186982 0.384604
vt 0.250211 0.373175
vt 0.250211 0.001371
vt 0.187955 -0.001314
vt 0.187955 0.370491
vt -0.003674 0.368140
vt 0.003760 -0.002275
vt 0.065964 -0.002528
vt 0.058530 0.367886
vt 0.068050 0.365241
vt 0.068050 0.003935
vt 0.122484 0.003935
vt 0.122484 0.365241
vt 0.187525 0.000071
vt 0.187524 0.370784
vt 0.125900 0.370784
vt 0.125900 0.000071
vt 0.124564 0.372844
vt 0.123284 0.495731
vt 0.062259 0.497328
vt 0.063538 0.374441
vt 0.179068 0.489942
vt 0.130391 0.486732
vt 0.129081 0.397994
vt 0.177758 0.401205
vt 0.250211 0.370491
vt 0.250211 0.001371
vt 0.190639 -0.001314
vt 0.190639 0.367806
vt 0.000878 0.373364
vt 0.000878 0.010074
vt 0.062985 0.010074
vt 0.062985 0.373364
vt 0.065586 0.375905
vt 0.065375 0.003473
vt 0.124947 0.003338
vt 0.125158 0.375770
vt 0.000807 0.009620
vt 0.000807 0.377727
vt 0.059514 0.377727
vt 0.059514 0.009620
vt 0.810749 0.385914
vt 0.811271 0.499729
vt 0.759676 0.499733
vt 0.759154 0.385918
vt 0.686919 0.378174
vt 0.749925 0.378174
vt 0.749289 0.500739
vt 0.686282 0.500739
vt 0.747193 0.001975
vt 0.748349 0.364560
vt 0.693041 0.364662
vt 0.691885 0.002077
vt 0.752226 0.003554
vt 0.753944 0.372404
vt 0.690567 0.378607
vt 0.688849 0.009758
vt 0.756093 0.006957
vt 0.756694 0.363210
vt 0.689552 0.364713
vt 0.688950 0.008460
vt 0.692350 0.372208
vt 0.697119 0.006768
vt 0.755237 0.007035
vt 0.750468 0.372475
vt 0.439419 0.501069
vt 0.313044 0.494516
vt 0.314588 0.373515
vt 0.440962 0.380069
vt 0.183671 0.494358
vt 0.127578 0.496613
vt 0.129334 0.382434
vt 0.185427 0.380179
vt 0.622224 0.375264
vt 0.625501 0.005748
vt 0.508958 0.000506
vt 0.505681 0.370022
vt 0.309159 0.373364
vt 0.309159 -0.002509
vt 0.249632 -0.002509
vt 0.249632 0.373364
vt 0.312738 0.372217
vt 0.312738 0.000239
vt 0.438887 0.000239
vt 0.438887 0.372217
vt 0.500000 -0.005172
vt 0.500000 0.370784
vt 0.441207 0.370784
vt 0.441206 -0.005172
vt 0.376673 0.749269
vt 0.375900 0.503487
vt 0.375900 0.503487
vt 0.376673 0.749269
vt 0.249306 0.504219
vt 0.374877 0.506418
vt 0.374931 0.749621
vt 0.250104 0.747256
vt 0.125687 0.503316
vt 0.250780 0.503290
vt 0.251113 0.748845
vt 0.126238 0.747512
vt 0.125457 0.755906
vt 0.249146 0.755974
vt 0.249112 0.999932
vt 0.125829 0.999911
vt 0.500661 0.750006
vt 0.500024 0.502517
vt 0.253952 0.761856
vt 0.369216 0.761856
vt 0.369216 0.991808
vt 0.253952 0.991808
vt 0.123832 0.501264
vt 0.124180 0.750315
vt 0.002091 0.753476
vt 0.001326 0.503335
vt 1.000000 1.000000
vt 1.000000 0.000000
vt 1.000000 0.000000
vt 1.000000 1.000000
vt 0.125829 0.999911
vt 0.125457 0.755906
vt 0.126238 0.747512
vt 0.125687 0.503316
vn 0.010272 0.999947 -0.000007
vn 0.010272 0.999947 -0.000007
vn 0.010272 0.999947 -0.000007
vn 0.010272 0.999947 -0.000007
vn -0.010272 -0.999947 0.000008
vn -0.010272 -0.999947 0.000008
vn -0.010272 -0.999947 0.000008
vn -0.010272 -0.999947 0.000008
vn -0.028890 0.000289 -0.999583
vn -0.028890 0.000289 -0.999583
vn -0.028890 0.000289 -0.999583
vn -0.028890 0.000289 -0.999583
vn -0.999530 0.010267 0.028892
vn -0.999530 0.010267 0.028892
vn -0.999530 0.010267 0.028892
vn -0.999530 0.010267 0.028892
vn 0.028890 -0.000290 0.999583
vn 0.028890 -0.000290 0.999583
vn 0.028890 -0.000290 0.999583
vn 0.028890 -0.000290 0.999583
vn 0.999530 -0.010266 -0.028892
vn 0.999530 -0.010266 -0.028892
vn 0.999530 -0.010266 -0.028892
vn 0.999530 -0.010266 -0.028892
vn 0.015018 0.999733 0.017542
vn 0.015018 0.999733 0.017542
vn 0.015018 0.999733 0.017542
vn 0.015018 0.999733 0.017542
vn -0.015018 -0.999733 -0.017542
vn -0.015018 -0.999733 -0.017542
vn -0.015018 -0.999733 -0.017542
vn -0.015018 -0.999733 -0.017542
vn -0.005672 0.017629 -0.999829
vn -0.005672 0.017629 -0.999829
vn -0.005672 0.017629 -0.999829
vn -0.005672 0.017629 -0.999829
vn -0.999871 0.014916 0.005935
vn -0.999871 0.014916 0.005935
vn -0.999871 0.014916 0.005935
vn -0.999871 0.014916 0.005935
vn 0.005672 -0.017629 0.999829
vn 0.005672 -0.017629 0.999829
vn 0.005672 -0.017629 0.999829
vn 0.005672 -0.017629 0.999829
vn 0.999871 -0.014916 -0.005935
vn 0.999871 -0.014916 -0.005935
vn 0.999871 -0.014916 -0.005935
vn 0.999871 -0.014916 -0.005935
vn 0.015018 0.999733 0.017542
vn 0.015018 0.999733 0.017542
vn 0.015018 0.999733 0.017542
vn 0.015018 0.999733 0.017542
vn -0.015018 -0.999733 -0.017542
vn -0.015018 -0.999733 -0.017542
vn -0.015018 -0.999733 -0.017542
vn -0.015018 -0.999733 -0.017542
vn -0.005672 0.017629 -0.999829
vn -0.005672 0.017629 -0.999829
vn -0.005672 0.017629 -0.999829
vn -0.005672 0.017629 -0.999829
vn -0.999871 0.014916 0.005935
vn -0.999871 0.014916 0.005935
vn -0.999871 0.014916 0.005935
vn -0.999871 0.014916 0.005935
vn 0.005672 -0.017629 0.999829
vn 0.005672 -0.017629 0.999829
vn 0.005672 -0.017629 0.999829
vn 0.005672 -0.017629 0.999829
vn 0.999871 -0.014916 -0.005935
vn 0.999871 -0.014916 -0.005935
vn 0.999871 -0.014916 -0.005935
vn 0.999871 -0.014916 -0.005935
vn -0.016656 -0.999768 -0.013674
vn -0.016656 -0.999768 -0.013674
vn -0.016656 -0.999768 -0.013674
vn -0.016656 -0.999768 -0.013674
vn 0.016656 0.999768 0.013675
vn 0.016656 0.999768 0.013675
vn 0.016656 0.999768 0.013675
vn 0.016656 0.999768 0.013675
vn 0.104754 0.011857 -0.994428
vn 0.104754 0.011857 -0.994428
vn 0.104754 0.011857 -0.994428
vn 0.104754 0.011857 -0.994428
vn 0.994359 -0.017994 0.104531
vn 0.994359 -0.017994 0.104531
vn 0.994359 -0.017994 0.104531
vn 0.994359 -0.017994 0.104531
vn -0.104754 -0.011857 0.994428
vn -0.104754 -0.011857 0.994428
vn -0.104754 -0.011857 0.994428
vn -0.104754 -0.011857 0.994428
vn -0.994359 0.017995 -0.104532
vn -0.994359 0.017995 -0.104532
vn -0.994359 0.017995 -0.104532
vn -0.994359 0.017995 -0.104532
vn 0.015018 0.999733 0.017542
vn 0.015018 0.999733 0.017542
vn 0.015018 0.999733 0.017542
vn 0.015018 0.999733 0.017542
vn -0.015018 -0.999733 -0.017542
vn -0.015018 -0.999733 -0.017542
vn -0.015018 -0.999733 -0.017542
vn -0.015018 -0.999733 -0.017542
vn -0.005672 0.017629 -0.999829
vn -0.005672 0.017629 -0.999829
vn -0.005672 0.017629 -0.999829
vn -0.005672 0.017629 -0.999829
vn -0.999871 0.014916 0.005936
vn -0.999871 0.014916 0.005936
vn -0.999871 0.014916 0.005936
vn -0.999871 0.014916 0.005936
vn 0.005672 -0.017629 0.999829
vn 0.005672 -0.017629 0.999829
vn 0.005672 -0.017629 0.999829
vn 0.005672 -0.017629 0.999829
vn 0.999871 -0.014916 -0.005935
vn 0.999871 -0.014916 -0.005935
vn 0.999871 -0.014916 -0.005935
vn 0.999871 -0.014916 -0.005935
vn 0.000000 0.000000 0.000000
vn 0.000000 0.000000 0.000000
vn 0.000000 0.000000 0.000000
vn 0.000000 0.000000 0.000000
vn 0.999948 -0.008322 -0.005819
vn 0.999948 -0.008322 -0.005819
vn 0.999948 -0.008322 -0.005819
vn 0.999948 -0.008322 -0.005819
vn 0.005672 -0.017629 0.999829
vn 0.005672 -0.017629 0.999829
vn 0.005672 -0.017629 0.999829
vn 0.005672 -0.017629 0.999829
vn 0.008422 0.999810 0.017581
vn 0.008422 0.999810 0.017581
vn 0.008422 0.999810 0.017581
vn 0.008422 0.999810 0.017581
vn -0.005672 0.017629 -0.999829
vn -0.005672 0.017629 -0.999829
vn -0.005672 0.017629 -0.999829
vn -0.005672 0.017629 -0.999829
vn -0.008423 -0.999810 -0.017581
vn -0.008423 -0.999810 -0.017581
vn -0.008423 -0.999810 -0.017581
vn -0.008423 -0.999810 -0.017581
vn -0.999948 0.008322 0.005819
vn -0.999948 0.008322 0.005819
vn -0.999948 0.008322 0.005819
vn -0.999948 0.008322 0.005819
vn 0.000000 0.000000 0.000000
vn 0.000000 0.000000 0.000000
vn 0.000000 0.000000 0.000000
vn 0.000000 0.000000 0.000000
vn 0.000000 0.000000 0.000000
vn 0.000000 0.000000 0.000000
vn 0.000000 0.000000 0.000000
vn 0.000000 0.000000 0.000000
vn 0.000000 0.000000 0.000000
vn 0.000000 0.000000 0.000000
vn 0.000000 0.000000 0.000000
vn 0.000000 0.000000 0.000000
s off
g initialShadingGroup Mesh
f 1/1/1 2/2/2 3/3/3 4/4/4
f 5/5/5 8/6/6 7/7/7 6/8/8
f 1/9/9 5/10/10 6/11/11 2/12/12
f 2/13/13 6/14/14 7/15/15 3/16/16
f 3/17/17 7/18/18 8/19/19 4/20/20
f 5/21/21 1/22/22 4/23/23 8/24/24
f 9/25/25 10/26/26 11/27/27 12/28/28
f 13/29/29 16/30/30 15/31/31 14/32/32
f 9/33/33 13/34/34 14/35/35 10/36/36
f 10/37/37 14/38/38 15/39/39 11/40/40
f 11/41/41 15/42/42 16/43/43 12/44/44
f 13/45/45 9/46/46 12/47/47 16/48/48
f 17/49/49 18/50/50 19/51/51 20/52/52
f 21/53/53 24/54/54 23/55/55 22/56/56
f 17/57/57 21/58/58 22/59/59 18/60/60
f 18/61/61 22/62/62 23/63/63 19/64/64
f 19/65/65 23/66/66 24/67/67 20/68/68
f 21/69/69 17/70/70 20/71/71 24/72/72
f 25/73/73 26/74/74 27/75/75 28/76/76
f 29/77/77 32/78/78 31/79/79 30/80/80
f 25/81/81 29/82/82 30/83/83 26/84/84
f 26/85/85 30/86/86 31/87/87 27/88/88
f 27/89/89 31/90/90 32/91/91 28/92/92
f 29/93/93 25/94/94 28/95/95 32/96/96
f 33/97/97 34/98/98 35/99/99 36/100/100
f 37/101/101 40/102/102 39/103/103 38/104/104
f 33/105/105 37/106/106 38/107/107 34/108/108
f 34/109/109 38/110/110 39/111/111 35/112/112
f 35/113/113 39/114/114 40/115/115 36/116/116
f 37/117/117 33/118/118 36/119/119 40/120/120
f 43/121/121 44/122/122 52/123/123 51/124/124
f 45/125/125 48/126/126 47/127/127 46/128/128
f 41/129/129 45/130/130 46/131/131 42/132/132
f 42/133/133 46/134/134 47/135/135 43/136/136
f 43/121/137 47/137/138 48/138/139 44/122/140
f 45/139/141 41/140/142 44/141/143 48/142/144
f 49/143/145 50/144/146 51/145/147 52/146/148
f 44/147/149 41/148/150 49/149/151 52/150/152
f 42/133/153 43/136/154 51/151/155 50/152/156
f 41/129/157 42/132/158 50/153/159 49/154/160
